HIERARCHY
ROOT Hips
{
	OFFSET 0.000000 103.266502 0.000000
	CHANNELS 6 Xposition Yposition Zposition Xrotation Yrotation Zrotation 
	JOINT Spine
	{
		OFFSET -0.002400 12.777504 0.315300
		CHANNELS 3 Xrotation Yrotation Zrotation
		JOINT Spine1
		{
			OFFSET -0.002067 5.816869 0.032633
			CHANNELS 3 Xrotation Yrotation Zrotation
			JOINT Spine1_split
			{
				OFFSET -0.002067 5.816869 0.032633
				CHANNELS 3 Xrotation Yrotation Zrotation
				JOINT Spine2
				{
					OFFSET -0.002067 5.816869 0.032633
					CHANNELS 3 Xrotation Yrotation Zrotation
					JOINT Neck
					{
						OFFSET -0.003700 21.199493 -0.826900
						CHANNELS 3 Xrotation Yrotation Zrotation
						JOINT Head
						{
							OFFSET 0.000000 20.442200 4.834800
							CHANNELS 3 Xrotation Yrotation Zrotation
							JOINT HeadTop_End
							{
								OFFSET 0.000000 34.668396 4.968400
								CHANNELS 3 Xrotation Yrotation Zrotation
								End Site
								{
									OFFSET 0.000000 0.000000 0.000000
								}
							}
						}
					}
					JOINT LeftShoulder
					{
						OFFSET 3.288150 8.794197 -1.372250
						CHANNELS 3 Xrotation Yrotation Zrotation
						JOINT LeftShoulder_split
						{
							OFFSET 3.288150 8.794197 -1.372250
							CHANNELS 3 Xrotation Yrotation Zrotation
							JOINT LeftArm
							{
								OFFSET 11.953299 -2.279007 -0.146200
								CHANNELS 3 Xrotation Yrotation Zrotation
								JOINT LeftForeArm
								{
									OFFSET 18.448900 0.000000 0.000000
									CHANNELS 3 Xrotation Yrotation Zrotation
									JOINT LeftHand
									{
										OFFSET 29.527798 0.000000 0.000000
										CHANNELS 3 Xrotation Yrotation Zrotation
										JOINT LeftHandThumb1
										{
											OFFSET 10.739754 -2.369614 9.225399
											CHANNELS 3 Xrotation Yrotation Zrotation
											JOINT LeftHandThumb2
											{
												OFFSET 4.926170 -2.844131 2.844125
												CHANNELS 3 Xrotation Yrotation Zrotation
												JOINT LeftHandThumb3
												{
													OFFSET 4.614891 -2.664413 2.664409
													CHANNELS 3 Xrotation Yrotation Zrotation
													JOINT LeftHandThumb4
													{
														OFFSET 4.432465 -2.559082 2.559083
														CHANNELS 3 Xrotation Yrotation Zrotation
														End Site
														{
															OFFSET 0.000000 0.000000 0.000000
														}
													}
												}
											}
										}
										JOINT LeftHandIndex1
										{
											OFFSET 26.467674 0.187653 6.405298
											CHANNELS 3 Xrotation Yrotation Zrotation
											JOINT LeftHandIndex2
											{
												OFFSET 8.792900 0.000000 0.000000
												CHANNELS 3 Xrotation Yrotation Zrotation
												JOINT LeftHandIndex3
												{
													OFFSET 10.075203 0.000000 0.000000
													CHANNELS 3 Xrotation Yrotation Zrotation
													End Site
													{
														OFFSET 0.000000 0.000000 0.000000
													}
												}
											}
										}
										JOINT LeftHandMiddle1
										{
											OFFSET 25.764404 0.000000 0.000000
											CHANNELS 3 Xrotation Yrotation Zrotation
											JOINT LeftHandMiddle2
											{
												OFFSET 9.393974 0.000000 0.000000
												CHANNELS 3 Xrotation Yrotation Zrotation
												JOINT LeftHandMiddle3
												{
													OFFSET 10.771950 0.000000 0.000000
													CHANNELS 3 Xrotation Yrotation Zrotation
													End Site
													{
														OFFSET 0.000000 0.000000 0.000000
													}
												}
											}
										}
										JOINT LeftHandRing1
										{
											OFFSET 24.660927 0.144547 -6.225808
											CHANNELS 3 Xrotation Yrotation Zrotation
											JOINT LeftHandRing2
											{
												OFFSET 9.393799 0.000000 0.000000
												CHANNELS 3 Xrotation Yrotation Zrotation
												JOINT LeftHandRing3
												{
													OFFSET 9.928497 0.000000 0.000000
													CHANNELS 3 Xrotation Yrotation Zrotation
													End Site
													{
														OFFSET 0.000000 0.000000 0.000000
													}
												}
											}
										}
										JOINT LeftHandPinky1
										{
											OFFSET 23.655350 0.125290 -12.815412
											CHANNELS 3 Xrotation Yrotation Zrotation
											JOINT LeftHandPinky2
											{
												OFFSET 8.425102 0.000000 0.000000
												CHANNELS 3 Xrotation Yrotation Zrotation
												JOINT LeftHandPinky3
												{
													OFFSET 8.147003 0.000000 0.000000
													CHANNELS 3 Xrotation Yrotation Zrotation
													End Site
													{
														OFFSET 0.000000 0.000000 0.000000
													}
												}
											}
										}
									}
								}
							}
						}
					}
					JOINT RightShoulder
					{
						OFFSET -3.249400 8.794197 -1.372250
						CHANNELS 3 Xrotation Yrotation Zrotation
						JOINT RightShoulder_split
						{
							OFFSET -3.249400 8.794197 -1.372250
							CHANNELS 3 Xrotation Yrotation Zrotation
							JOINT RightArm
							{
								OFFSET -11.953299 -2.279007 -0.146200
								CHANNELS 3 Xrotation Yrotation Zrotation
								JOINT RightForeArm
								{
									OFFSET -18.448900 0.000000 0.000000
									CHANNELS 3 Xrotation Yrotation Zrotation
									JOINT RightHand
									{
										OFFSET -29.527802 0.000000 0.000000
										CHANNELS 3 Xrotation Yrotation Zrotation
										JOINT RightHandThumb1
										{
											OFFSET -10.739754 -2.369614 9.225399
											CHANNELS 3 Xrotation Yrotation Zrotation
											JOINT RightHandThumb2
											{
												OFFSET -4.926170 -2.844131 2.844125
												CHANNELS 3 Xrotation Yrotation Zrotation
												JOINT RightHandThumb3
												{
													OFFSET -4.614891 -2.664413 2.664409
													CHANNELS 3 Xrotation Yrotation Zrotation
													JOINT RightHandThumb4
													{
														OFFSET -4.432465 -2.559082 2.559083
														CHANNELS 3 Xrotation Yrotation Zrotation
														End Site
														{
															OFFSET 0.000000 0.000000 0.000000
														}
													}
												}
											}
										}
										JOINT RightHandIndex1
										{
											OFFSET -26.467674 0.187653 6.405298
											CHANNELS 3 Xrotation Yrotation Zrotation
											JOINT RightHandIndex2
											{
												OFFSET -8.792900 0.000000 0.000000
												CHANNELS 3 Xrotation Yrotation Zrotation
												JOINT RightHandIndex3
												{
													OFFSET -10.075203 0.000000 0.000000
													CHANNELS 3 Xrotation Yrotation Zrotation
													End Site
													{
														OFFSET 0.000000 0.000000 0.000000
													}
												}
											}
										}
										JOINT RightHandMiddle1
										{
											OFFSET -25.764404 0.000000 0.000000
											CHANNELS 3 Xrotation Yrotation Zrotation
											JOINT RightHandMiddle2
											{
												OFFSET -9.393974 0.000000 0.000000
												CHANNELS 3 Xrotation Yrotation Zrotation
												JOINT RightHandMiddle3
												{
													OFFSET -10.771950 0.000000 0.000000
													CHANNELS 3 Xrotation Yrotation Zrotation
													End Site
													{
														OFFSET 0.000000 0.000000 0.000000
													}
												}
											}
										}
										JOINT RightHandRing1
										{
											OFFSET -24.660927 0.144547 -6.225808
											CHANNELS 3 Xrotation Yrotation Zrotation
											JOINT RightHandRing2
											{
												OFFSET -9.393799 0.000000 0.000000
												CHANNELS 3 Xrotation Yrotation Zrotation
												JOINT RightHandRing3
												{
													OFFSET -9.928497 0.000000 0.000000
													CHANNELS 3 Xrotation Yrotation Zrotation
													End Site
													{
														OFFSET 0.000000 0.000000 0.000000
													}
												}
											}
										}
										JOINT RightHandPinky1
										{
											OFFSET -23.655350 0.125290 -12.815412
											CHANNELS 3 Xrotation Yrotation Zrotation
											JOINT RightHandPinky2
											{
												OFFSET -8.425102 0.000000 0.000000
												CHANNELS 3 Xrotation Yrotation Zrotation
												JOINT RightHandPinky3
												{
													OFFSET -8.147003 0.000000 0.000000
													CHANNELS 3 Xrotation Yrotation Zrotation
													End Site
													{
														OFFSET 0.000000 0.000000 0.000000
													}
												}
											}
										}
									}
								}
							}
						}
					}
				}
			}
		}
	}
	JOINT LeftUpLeg
	{
		OFFSET 11.394100 -6.187798 -0.413800
		CHANNELS 3 Xrotation Yrotation Zrotation
		JOINT LeftLeg
		{
			OFFSET 0.430247 -32.302673 3.732800
			CHANNELS 3 Xrotation Yrotation Zrotation
			JOINT LeftFoot
			{
				OFFSET -0.430247 -48.264931 -6.423300
				CHANNELS 3 Xrotation Yrotation Zrotation
				JOINT LeftToeBase
				{
					OFFSET 4.230900 -16.068199 23.438400
					CHANNELS 3 Xrotation Yrotation Zrotation
					JOINT LeftToe_End
					{
						OFFSET 4.510700 0.695400 19.974600
						CHANNELS 3 Xrotation Yrotation Zrotation
						End Site
						{
							OFFSET 0.000000 0.000000 0.000000
						}
					}
				}
			}
		}
	}
	JOINT RightUpLeg
	{
		OFFSET -11.333700 -6.187798 -0.413800
		CHANNELS 3 Xrotation Yrotation Zrotation
		JOINT RightLeg
		{
			OFFSET -0.430392 -32.302628 3.733000
			CHANNELS 3 Xrotation Yrotation Zrotation
			JOINT RightFoot
			{
				OFFSET 0.430392 -48.264973 -6.423500
				CHANNELS 3 Xrotation Yrotation Zrotation
				JOINT RightToeBase
				{
					OFFSET -4.230900 -16.068199 23.438400
					CHANNELS 3 Xrotation Yrotation Zrotation
					JOINT RightToe_End
					{
						OFFSET -4.510700 0.695400 19.974600
						CHANNELS 3 Xrotation Yrotation Zrotation
						End Site
						{
							OFFSET 0.000000 0.000000 0.000000
						}
					}
				}
			}
		}
	}
}
MOTION
Frames: 4
Frame Time: 0.016667
6.062058 78.733200 137.346680 8.395996 -19.528216 1.632613 2.356634 -4.530979 0.990493 4.820221 -8.149188 2.085948 0.000000 0.000000 0.000000 4.820149 -8.149122 2.085945 9.532192 2.585889 14.901490 -2.611319 9.939554 -20.211631 0.000001 0.000001 -0.000000 -4.481863 -16.524632 -19.193561 0.000000 0.000000 0.000000 -50.218256 -13.065780 -29.545332 -9.513691 -45.265129 18.313361 -90.641323 -9.142719 11.811222 18.604739 9.201157 -20.335715 9.366550 23.517111 3.907234 15.631117 30.652229 0.949981 -0.000001 0.000005 0.000002 5.062935 7.259544 -60.393489 0.009029 -4.396066 -76.234747 -0.000000 -0.000000 0.000003 -0.063964 4.758031 -60.986821 -0.080438 -4.896945 -84.974363 0.000000 -0.000000 -0.000003 -0.034402 -0.057005 -61.362276 -0.169956 -1.351951 -91.625376 -0.000000 -0.000001 0.000001 -4.255078 -2.157310 -63.603172 -0.059598 -0.064777 -85.011103 0.000000 -0.000000 0.000002 0.026770 -1.767842 1.230274 0.000000 0.000000 0.000000 -18.293043 31.587330 8.179662 40.535171 8.128181 -4.683259 -43.424727 -46.363710 -11.839848 15.959772 -4.187796 29.032211 -14.791965 -41.235495 -16.515539 1.538921 -36.186489 -16.491855 0.000003 -0.000002 0.000003 5.358211 -4.863572 67.585050 0.006264 4.394831 68.693412 0.000001 0.000001 -0.000001 -0.076810 -4.752187 70.834888 -0.076454 4.897900 82.216346 0.000000 -0.000001 0.000004 -1.164526 -6.475310 73.357488 -0.172075 1.351243 92.834401 -0.000001 0.000002 -0.000000 -5.344944 -12.802392 81.125244 -0.058394 0.065307 84.695992 0.000000 -0.000001 0.000002 16.931817 31.491496 13.943555 39.558444 20.940535 -5.639031 -27.879541 -2.397621 -31.574810 -32.294630 0.678142 -9.597807 -0.000001 0.000000 -0.000000 -77.923477 -5.063313 -8.683762 62.013070 3.749224 -7.621113 6.724628 7.800859 5.893505 -2.924170 2.984514 1.673281 0.000000 0.000001 -0.000000 
5.378130 79.094933 139.817337 10.261430 -18.620841 1.147301 2.363245 -5.495310 1.242426 4.899760 -10.154809 2.662431 0.000000 0.000000 0.000000 4.899744 -10.154738 2.662415 8.502562 4.160266 15.381250 -1.540123 11.907278 -20.331223 -0.000000 -0.000000 -0.000001 -5.170240 -18.664284 -18.158323 0.000000 0.000000 0.000000 -46.432811 -18.052711 -34.485605 -9.204826 -38.217039 16.317071 -98.519967 2.929855 8.071416 18.604739 9.201158 -20.335719 9.366549 23.517111 3.907233 15.631117 30.652226 0.949984 -0.000003 0.000002 0.000000 5.062936 7.259547 -60.393489 0.009029 -4.396067 -76.234753 0.000001 0.000001 -0.000003 -0.063964 4.758033 -60.986814 -0.080437 -4.896945 -84.974363 -0.000001 0.000001 -0.000001 -0.034404 -0.057002 -61.362269 -0.169954 -1.351954 -91.625376 0.000002 -0.000000 -0.000000 -4.255079 -2.157309 -63.603172 -0.059594 -0.064777 -85.011109 0.000001 0.000000 0.000002 0.248728 -2.144185 4.457617 0.000000 0.000000 0.000000 -14.470975 21.706640 4.671655 37.782264 8.308575 -4.381094 -41.885155 -47.673679 -10.025608 15.959770 -4.187791 29.032214 -14.791967 -41.235498 -16.515541 1.538917 -36.186486 -16.491854 -0.000001 -0.000000 -0.000000 5.358210 -4.863574 67.585050 0.006265 4.394831 68.693412 0.000001 0.000001 -0.000002 -0.076809 -4.752188 70.834895 -0.076455 4.897900 82.216346 0.000001 -0.000001 -0.000001 -1.164526 -6.475306 73.357488 -0.172079 1.351244 92.834401 -0.000000 0.000002 -0.000002 -5.344945 -12.802394 81.125244 -0.058394 0.065307 84.695992 -0.000000 0.000002 0.000002 17.261713 32.855918 14.890605 36.616593 22.834927 -5.827461 -25.050313 -3.377975 -32.058493 -34.766810 -1.082553 -11.336262 -0.000000 -0.000001 -0.000000 -78.529615 -6.343210 -9.485691 63.694485 4.844003 -7.622743 3.928503 6.530698 6.075844 -2.924221 2.984537 1.673305 -0.000000 0.000002 0.000000 
4.644585 79.532036 142.462173 11.998576 -17.604124 0.648065 2.363986 -6.339636 1.379513 4.960982 -11.924856 3.021995 0.000000 0.000000 0.000000 4.961001 -11.924947 3.022033 7.327452 5.709584 15.847446 -0.541804 13.761537 -20.423755 -0.000000 -0.000001 0.000000 -5.400955 -20.399535 -16.650063 0.000000 0.000000 0.000000 -43.348465 -23.388163 -38.897927 -9.093611 -31.903814 14.184727 -106.152396 14.962521 7.623545 18.604739 9.201155 -20.335713 9.366547 23.517108 3.907237 15.631117 30.652229 0.949982 0.000001 -0.000003 -0.000003 5.062933 7.259542 -60.393489 0.009025 -4.396063 -76.234747 0.000003 -0.000001 -0.000000 -0.063962 4.758028 -60.986821 -0.080438 -4.896945 -84.974363 0.000001 0.000003 -0.000001 -0.034401 -0.057007 -61.362276 -0.169957 -1.351949 -91.625376 -0.000001 0.000003 -0.000003 -4.255079 -2.157314 -63.603172 -0.059598 -0.064775 -85.011116 0.000000 -0.000002 -0.000002 0.440953 -2.570721 6.867599 0.000000 0.000000 0.000000 -12.839504 16.555902 3.599490 34.933662 8.728768 -3.601189 -39.383670 -54.979966 -8.524773 15.959770 -4.187796 29.032211 -14.791967 -41.235491 -16.515539 1.538917 -36.186482 -16.491855 0.000000 0.000001 0.000001 5.358211 -4.863573 67.585050 0.006263 4.394831 68.693412 -0.000000 0.000000 -0.000001 -0.076808 -4.752188 70.834895 -0.076454 4.897900 82.216339 -0.000000 -0.000000 0.000002 -1.164525 -6.475306 73.357488 -0.172078 1.351244 92.834401 -0.000001 -0.000000 -0.000004 -5.344944 -12.802392 81.125244 -0.058393 0.065308 84.695999 0.000000 -0.000000 0.000001 17.018967 33.968522 16.406135 34.462679 24.929292 -6.195647 -20.889307 -4.535509 -32.591043 -38.718857 -3.278380 -12.999089 -0.000001 0.000000 0.000000 -78.576149 -7.318730 -10.104788 65.233429 6.288961 -7.586855 0.941954 4.505313 6.305207 -2.924256 2.984549 1.673327 0.000000 -0.000001 -0.000000 
3.992000 79.884338 144.785965 13.053571 -17.920378 0.149598 2.362042 -7.023190 1.483229 5.005441 -13.332000 3.278270 0.000000 0.000000 0.000000 5.005466 -13.331903 3.278240 6.051128 7.224983 16.300544 0.372252 15.500506 -20.487818 0.000001 0.000003 -0.000000 -5.462526 -21.822326 -15.277260 0.000000 0.000000 0.000000 -41.539844 -28.186685 -42.662659 -9.093006 -26.803747 12.045796 -113.642689 25.261567 10.199953 18.604744 9.201155 -20.335715 9.366549 23.517106 3.907234 15.631113 30.652229 0.949982 -0.000001 0.000002 -0.000001 5.062935 7.259544 -60.393489 0.009028 -4.396064 -76.234747 -0.000000 0.000000 -0.000000 -0.063960 4.758033 -60.986821 -0.080438 -4.896946 -84.974363 0.000000 -0.000001 -0.000003 -0.034401 -0.057005 -61.362276 -0.169953 -1.351953 -91.625383 0.000004 -0.000001 -0.000005 -4.255076 -2.157309 -63.603179 -0.059597 -0.064776 -85.011109 0.000001 -0.000002 -0.000000 0.571910 -3.041701 8.393505 0.000000 0.000000 0.000000 -12.235264 14.739605 3.552606 31.986896 9.211515 -2.529607 -37.140281 -64.951172 -8.984018 15.959772 -4.187797 29.032214 -14.791968 -41.235491 -16.515543 1.538922 -36.186489 -16.491854 0.000001 -0.000000 0.000001 5.358210 -4.863575 67.585043 0.006262 4.394829 68.693412 -0.000001 0.000000 -0.000002 -0.076810 -4.752189 70.834888 -0.076453 4.897900 82.216346 -0.000001 -0.000000 0.000000 -1.164527 -6.475307 73.357482 -0.172076 1.351245 92.834401 -0.000000 0.000001 -0.000003 -5.344944 -12.802394 81.125244 -0.058393 0.065307 84.695992 0.000001 0.000001 -0.000002 16.816537 34.720468 18.209752 33.844892 26.792763 -6.848368 -15.057523 -5.961673 -34.141858 -42.693259 -5.484981 -12.706128 -0.000000 -0.000000 0.000000 -77.891716 -7.876706 -9.501874 66.030116 6.176307 -7.636591 -1.443696 4.205553 6.537196 -2.924278 2.984576 1.673350 0.000000 0.000002 -0.000000 
